<svg width="142" height="137" viewBox="0 0 142 137" fill="none" xmlns="http://www.w3.org/2000/svg">
<path d="M139.32 101.578L130.926 129.781L83.414 115.679L82.206 115.838L81.738 117.544L98.813 122.61L78.597 134.643H63.417L43.202 122.61L60.27 117.552L59.801 115.838L58.601 115.679L41.534 120.745L39.269 121.416L11.089 129.781L2.694 101.578L0 100.476L9.564 132.596L40.242 123.485L62.791 136.906H79.225L101.773 123.485L132.451 132.596L142.008 100.476L139.32 101.578Z" fill="black"/>
<path d="M39.269 101.577V121.416L41.534 120.745V102.732L58.601 115.679L59.801 115.838L60.918 114.592L40.771 99.312H2.656L11.194 67.471L9.149 66.361L0 100.476L2.695 101.577H39.269ZM109.645 83.687L102.398 85.476V87.816L113.072 85.174L113.14 67.471H111.638L110.875 66.951L110.815 81.663L102.066 73.405H83.912L83.565 75.677H101.169L109.645 83.687Z" fill="black"/>
<path d="M39.615 87.816V85.476L32.367 83.687L40.845 75.679H58.441L58.094 73.406H40.384L39.606 73.716L31.196 81.664L31.136 66.952L30.373 67.473H28.864L28.932 85.176L39.615 87.816ZM130.814 67.471L139.352 99.312H101.238L81.09 114.591L82.208 115.836L83.415 115.677L100.475 102.731V120.743L102.74 121.414V101.576H139.321L142.008 100.474L132.866 66.36L130.814 67.471Z" fill="black"/>
<path d="M28.867 67.471H30.376L54.608 50.871L58.103 73.411L58.45 75.684L63.96 111.232L65.923 110.439H66.127L56.585 48.871L58.343 30.836H83.669L85.42 48.892L75.878 110.437H76.083L78.045 111.23L83.555 75.682L83.902 73.41H83.91L87.405 50.869L110.866 66.948L111.629 67.476H130.811L132.856 66.367L141.998 37.53L132.406 0L84.418 28.565H57.598L9.602 0L0 37.533L9.142 66.37L11.187 67.479H28.86L28.867 67.471ZM139.652 37.465L130.851 65.206H112.364L88.306 48.728L131.092 4.008L139.652 37.465ZM125.114 6.982L87.461 46.334L85.897 30.322C85.898 30.322 125.114 6.982 125.114 6.982ZM56.11 30.314L54.555 46.334L16.902 6.975L56.11 30.307V30.315V30.314ZM2.355 37.465L10.915 4.009L53.701 48.728L29.645 65.206H11.157L2.355 37.465Z" fill="black"/>
<path d="M64.671 110.439L59.802 115.837L62.226 124.676H79.777L82.201 115.837L77.332 110.439H77.347H64.671ZM78.046 122.412H63.976L62.33 116.419L65.659 112.727H76.363L79.692 116.419C79.692 116.418 78.046 122.412 78.046 122.412ZM58.467 91.129L58.255 90.577V90.563L54.503 80.84H44.357L39.617 85.475V87.807L56.352 91.944L58.465 91.129H58.467ZM45.278 83.112H52.948L55.357 89.348L42.207 86.102L45.272 83.113H45.279L45.278 83.112ZM85.649 91.945L102.385 87.809V85.476L97.644 80.85H87.498L83.747 90.564V90.579L83.535 91.131L85.649 91.945ZM99.789 86.102L86.639 89.348L89.048 83.106H96.717L99.782 86.103L99.789 86.102Z" fill="black"/>
</svg>
