<svg xmlns="http://www.w3.org/2000/svg" width="707" height="326" viewBox="0 0 707 326">
<g>
<path d="M 279.51 278.02 C279.17,277.47 278.93,253.23 278.97,224.14 C279.02,191.17 278.67,170.26 278.05,168.63 L 277.05 166.00 L 235.76 166.00 L 194.47 166.00 L 179.62 151.12 C171.44,142.93 164.92,135.76 165.13,135.18 C165.33,134.60 187.93,111.59 215.34,84.06 L 265.18 34.00 L 282.47 34.00 C295.71,34.00 300.02,34.31 300.87,35.34 C301.65,36.28 302.06,52.55 302.24,89.59 L 302.50 142.50 L 315.50 142.77 C326.28,142.99 328.71,143.32 329.75,144.71 C331.50,147.05 331.45,163.38 329.69,164.85 C328.93,165.47 322.88,166.06 315.44,166.22 L 302.50 166.50 L 302.00 221.50 C301.73,251.75 301.14,277.06 300.69,277.75 C299.70,279.28 280.44,279.52 279.51,278.02 ZM 277.98 140.55 C278.49,139.20 278.94,120.64 278.98,99.27 C279.05,57.73 278.79,55.43 274.42,57.78 C271.47,59.35 198.00,133.76 198.00,135.17 C198.00,135.85 199.44,137.89 201.20,139.70 L 204.39 143.00 L 240.72 143.00 L 277.05 143.00 L 277.98 140.55 ZM 392.46 277.61 C376.53,273.74 364.39,261.51 361.06,246.00 C360.19,241.95 359.96,217.88 360.19,154.45 L 360.50 68.39 L 364.27 60.78 C369.97,49.24 378.43,42.26 391.21,38.54 C396.05,37.13 401.57,36.94 429.68,37.21 C466.34,37.55 467.58,37.75 477.68,44.88 C487.20,51.61 493.03,61.10 494.94,73.00 C495.60,77.13 495.98,108.49 495.98,159.00 C495.96,245.60 495.86,247.45 490.35,256.85 C484.11,267.50 475.04,274.45 463.47,277.47 C455.89,279.44 400.46,279.55 392.46,277.61 ZM 464.18 252.21 C466.44,250.80 468.75,248.11 470.18,245.21 L 472.50 240.50 L 472.79 187.75 C472.95,158.74 472.72,135.00 472.28,135.00 C471.84,135.00 451.57,154.69 427.24,178.75 L 383.00 222.50 L 383.00 231.28 C383.00,242.92 385.82,249.47 392.50,253.34 C393.82,254.10 403.73,254.67 421.50,255.00 C453.91,255.60 459.27,255.25 464.18,252.21 ZM 472.71 87.46 C472.31,72.25 470.67,67.80 463.81,63.25 L 459.65 60.50 L 430.08 60.18 C397.64,59.83 395.19,60.14 389.33,65.28 C382.81,71.01 383.00,69.01 383.00,132.72 L 383.01 190.50 L 428.02 145.46 L 473.04 100.41 L 472.71 87.46 ZM 537.07 278.27 C533.31,277.56 530.32,275.20 528.59,271.54 C527.31,268.85 527.00,264.47 527.00,249.16 C527.00,238.70 527.44,228.97 527.98,227.55 C528.52,226.14 556.42,196.80 589.98,162.37 L 651.00 99.75 L 651.00 94.27 C651.00,87.82 650.93,87.72 634.74,71.25 L 623.69 60.00 L 597.66 60.00 L 571.64 60.00 L 555.53 76.00 C546.67,84.80 538.98,92.00 538.44,92.00 C536.86,92.00 524.00,78.61 524.00,76.96 C524.00,75.29 559.31,39.82 562.68,38.11 C564.15,37.36 575.78,37.00 598.05,37.00 C630.14,37.00 631.35,37.07 634.86,39.14 C639.15,41.66 669.71,73.65 672.25,78.28 C673.66,80.85 673.99,83.88 673.95,93.98 C673.93,101.46 673.42,107.61 672.70,109.25 C672.04,110.76 650.80,133.22 625.50,159.16 C600.20,185.11 572.86,213.21 564.75,221.62 L 550.00 236.90 L 550.00 245.48 C550.00,251.44 550.38,254.20 551.25,254.52 C551.94,254.77 579.40,255.09 612.29,255.24 C664.15,255.47 672.20,255.70 673.02,257.00 C674.43,259.23 674.25,276.35 672.80,277.80 C671.89,278.71 655.74,278.97 605.55,278.86 C569.22,278.79 538.41,278.52 537.07,278.27 ZM 45.57 271.00 C41.41,266.97 38.00,263.17 38.00,262.57 C38.00,261.98 51.50,247.99 68.00,231.50 L 98.00 201.51 L 98.00 194.50 L 98.00 187.49 L 68.00 157.50 C51.50,141.01 38.00,127.05 38.00,126.48 C38.00,125.91 41.35,122.13 45.44,118.06 L 52.87 110.68 L 87.19 144.29 L 121.50 177.91 L 134.74 164.73 L 147.98 151.55 L 153.20 156.53 C161.77,164.69 163.00,166.05 163.00,167.32 C163.00,167.99 158.73,172.80 153.50,178.00 L 144.00 187.46 L 144.00 194.49 L 144.00 201.51 L 174.00 231.50 C190.50,247.99 204.00,261.95 204.00,262.52 C204.00,263.09 200.63,266.90 196.50,271.00 L 189.01 278.44 L 155.00 244.48 L 120.99 210.53 L 87.06 244.44 L 53.14 278.35 L 45.57 271.00 Z" fill="rgba(0,0,0,1)"/>
</g>
</svg>